HIERARCHY
ROOT Hips
{
	OFFSET -0.001795 -0.223333 0.028219
	CHANNELS 6 Xposition Yposition Zposition Zrotation Yrotation Xrotation 
	JOINT LeftUpLeg
	{
		OFFSET 0.069520 -0.091406 -0.006815
		CHANNELS 3 Zrotation Yrotation Xrotation
		JOINT LeftLeg
		{
			OFFSET 0.034277 -0.375199 -0.004496
			CHANNELS 3 Zrotation Yrotation Xrotation
			JOINT LeftFoot
			{
				OFFSET -0.013596 -0.397961 -0.043693
				CHANNELS 3 Zrotation Yrotation Xrotation
				JOINT LeftToe
				{
					OFFSET 0.026358 -0.055791 0.119288
					CHANNELS 3 Zrotation Yrotation Xrotation
					End Site
					{
						OFFSET 0.000000 0.000000 0.000000
					}
				}
			}
		}
	}
	JOINT RightUpLeg
	{
		OFFSET -0.067670 -0.090522 -0.004320
		CHANNELS 3 Zrotation Yrotation Xrotation
		JOINT RightLeg
		{
			OFFSET -0.038290 -0.382569 -0.008850
			CHANNELS 3 Zrotation Yrotation Xrotation
			JOINT RightFoot
			{
				OFFSET 0.015774 -0.398415 -0.042312
				CHANNELS 3 Zrotation Yrotation Xrotation
				JOINT RightToe
				{
					OFFSET -0.025372 -0.048144 0.123348
					CHANNELS 3 Zrotation Yrotation Xrotation
					End Site
					{
						OFFSET 0.000000 0.000000 0.000000
					}
				}
			}
		}
	}
	JOINT Spine
	{
		OFFSET -0.002533 0.108963 -0.026696
		CHANNELS 3 Zrotation Yrotation Xrotation
		JOINT Spine1
		{
			OFFSET 0.005487 0.135180 0.001092
			CHANNELS 3 Zrotation Yrotation Xrotation
			JOINT Spine2
			{
				OFFSET 0.001457 0.052922 0.025425
				CHANNELS 3 Zrotation Yrotation Xrotation
				JOINT Neck
				{
					OFFSET -0.002778 0.213870 -0.042857
					CHANNELS 3 Zrotation Yrotation Xrotation
					JOINT Head
					{
						OFFSET 0.005152 0.064970 0.051349
						CHANNELS 3 Zrotation Yrotation Xrotation
						End Site
						{
							OFFSET 0.000000 0.000000 0.000000
						}
					}
				}
				JOINT LeftShoulder
				{
					OFFSET 0.078845 0.121749 -0.034090
					CHANNELS 3 Zrotation Yrotation Xrotation
					JOINT LeftArm
					{
						OFFSET 0.090977 0.030469 -0.008868
						CHANNELS 3 Zrotation Yrotation Xrotation
						JOINT LeftForeArm
						{
							OFFSET 0.259612 -0.012772 -0.027456
							CHANNELS 3 Zrotation Yrotation Xrotation
							JOINT LeftHand
							{
								OFFSET 0.249234 0.008986 -0.001171
								CHANNELS 3 Zrotation Yrotation Xrotation
								End Site
								{
									OFFSET 0.000000 0.000000 0.000000
								}
							}
						}
					}
				}
				JOINT RightShoulder
				{
					OFFSET -0.081759 0.118833 -0.038615
					CHANNELS 3 Zrotation Yrotation Xrotation
					JOINT RightArm
					{
						OFFSET -0.096012 0.032551 -0.009143
						CHANNELS 3 Zrotation Yrotation Xrotation
						JOINT RightForeArm
						{
							OFFSET -0.253742 -0.013329 -0.021401
							CHANNELS 3 Zrotation Yrotation Xrotation
							JOINT RightHand
							{
								OFFSET -0.255298 0.007772 -0.005559
								CHANNELS 3 Zrotation Yrotation Xrotation
								End Site
								{
									OFFSET 0.000000 0.000000 0.000000
								}
							}
						}
					}
				}
			}
		}
	}
}
MOTION
Frames: 14
Frame Time: 0.050000
0.495201 0.875705 0.766369 -6.525672 -17.780164 9.463721 21.272305 5.671815 -31.488585 -11.236117 8.836288 45.678456 6.058043 12.932346 8.188567 0.000000 0.000000 0.000000 -14.091589 1.656674 -27.160717 25.403345 -5.230391 29.317484 -7.761744 -20.265090 6.127544 0.000000 0.000000 0.000000 -2.524800 3.244722 50.321569 7.362292 -0.763314 -28.791287 3.319880 -4.020095 17.935569 -7.180769 3.643088 -41.705611 0.000000 0.000000 0.000000 -24.043083 -18.715492 13.388094 -20.343145 -43.628917 2.070499 4.240728 -52.678143 1.091504 0.000000 0.000000 0.000000 14.784312 31.739514 12.546502 27.114654 38.451099 4.070729 -2.023148 56.079665 -0.013743 0.000000 0.000000 0.000000 
0.479321 0.874012 0.755034 -6.347255 -16.978922 10.059087 22.103203 5.816041 -31.589070 -11.264449 8.240953 43.781331 5.972792 12.703173 6.849984 0.000000 0.000000 0.000000 -13.491155 1.761523 -28.485291 26.292322 -5.667618 29.502999 -8.358718 -21.459879 5.458090 0.000000 0.000000 0.000000 -1.673356 2.703112 51.127785 7.286876 -0.742193 -28.845424 3.586664 -4.059864 17.616808 -8.616995 4.196047 -42.310758 0.000000 0.000000 0.000000 -24.255827 -19.151762 13.639768 -19.076956 -44.049708 1.780131 8.243176 -53.962828 -0.882701 0.000000 0.000000 0.000000 14.758725 31.829338 12.698881 26.350707 39.695945 4.085332 -4.272163 54.848112 -1.025103 0.000000 0.000000 0.000000 
0.461586 0.872250 0.743561 -6.183855 -16.542465 10.456848 22.974387 6.004199 -31.487493 -11.053235 7.656288 42.093445 5.891940 12.510587 6.181175 0.000000 0.000000 0.000000 -12.802721 1.913743 -29.733181 27.248518 -6.086504 29.814833 -8.794975 -22.377321 4.858893 0.000000 0.000000 0.000000 -1.125747 2.383229 51.840204 7.585035 -0.801517 -28.746069 3.688921 -3.935975 17.382322 -9.616559 4.583942 -43.103547 0.000000 0.000000 0.000000 -24.262978 -19.079189 13.485700 -18.307619 -44.320629 1.619206 11.313028 -54.298122 -2.450412 0.000000 0.000000 0.000000 14.066008 32.152372 12.868023 26.056570 40.910646 4.190455 -6.567700 53.979393 -2.048259 0.000000 0.000000 0.000000 
0.441900 0.871650 0.731586 -5.920982 -15.557120 10.611430 23.946297 5.990367 -30.831612 -11.003144 6.904391 39.410787 5.633820 12.029213 5.622596 0.000000 0.000000 0.000000 -12.063901 1.998557 -30.516972 28.209236 -6.555122 29.748449 -9.316590 -23.460905 4.649852 0.000000 0.000000 0.000000 -0.227459 1.781160 53.273485 7.369495 -0.682895 -29.509348 3.733758 -3.937013 17.101815 -10.691370 5.004339 -43.437576 0.000000 0.000000 0.000000 -23.919645 -19.502715 13.506690 -17.353260 -44.460486 1.412009 13.048642 -53.820327 -3.345676 0.000000 0.000000 0.000000 13.736251 32.291936 13.018210 26.126354 41.849056 4.383747 -8.163964 52.467659 -2.638159 0.000000 0.000000 0.000000 
0.420809 0.871372 0.719004 -5.866016 -14.663533 10.741952 25.140542 6.015914 -30.013232 -10.774268 6.095544 36.538129 5.325028 11.499765 5.668560 0.000000 0.000000 0.000000 -10.796068 2.190663 -31.276573 28.780668 -6.900089 29.715596 -9.777915 -24.418848 4.561017 0.000000 0.000000 0.000000 0.202007 1.357415 54.080365 7.638796 -0.687107 -29.844228 4.159909 -3.637597 16.873279 -11.951721 5.499699 -43.664628 0.000000 0.000000 0.000000 -24.449052 -19.478562 13.412036 -15.599924 -44.379695 0.895299 13.844330 -52.204382 -3.734682 0.000000 0.000000 0.000000 13.025641 32.587752 13.216249 26.256668 42.720585 4.574413 -8.897193 50.461849 -2.739043 0.000000 0.000000 0.000000 
0.399693 0.871936 0.705607 -5.559934 -14.045874 10.637011 25.939762 5.936905 -29.059950 -10.288365 5.282413 33.651778 4.999788 11.012177 6.615987 0.000000 0.000000 0.000000 -9.242575 2.450654 -31.695757 28.461703 -6.871668 29.554997 -10.115682 -25.135829 3.991370 0.000000 0.000000 0.000000 0.753596 0.933761 54.778821 7.610129 -0.654674 -30.127841 4.039316 -3.379193 16.437751 -11.951345 5.544793 -43.716808 0.000000 0.000000 0.000000 -23.803382 -19.730549 13.227103 -13.898216 -43.414340 0.387944 14.817905 -50.300852 -4.131865 0.000000 0.000000 0.000000 13.238216 33.027694 13.609128 25.139628 43.510078 4.416192 -9.183270 48.188769 -2.628637 0.000000 0.000000 0.000000 
0.379944 0.872738 0.691535 -5.251080 -13.549274 10.496706 26.842083 5.825958 -27.747982 -10.129739 4.610572 30.129883 4.703264 10.611906 7.816990 0.000000 0.000000 0.000000 -7.939983 2.681452 -31.992236 28.355700 -6.828159 29.031819 -10.351238 -25.624494 3.788359 0.000000 0.000000 0.000000 1.002437 0.710249 55.567492 7.312823 -0.553705 -30.630902 4.328239 -3.212027 16.833486 -12.572413 5.765388 -44.421027 0.000000 0.000000 0.000000 -23.105832 -20.318515 13.305711 -11.359363 -43.029470 -0.324415 17.313661 -47.509117 -5.080187 0.000000 0.000000 0.000000 11.978539 33.641901 13.764427 24.623275 44.701355 4.394442 -9.584943 46.385876 -2.627586 0.000000 0.000000 0.000000 
0.363054 0.874774 0.677300 -5.066808 -13.354008 10.801114 27.040722 5.682175 -27.093265 -8.941884 3.677752 27.033244 4.516985 10.453802 9.657967 0.000000 0.000000 0.000000 -6.637128 3.009671 -32.681823 27.974259 -6.606467 28.281063 -10.445232 -25.840161 4.181086 0.000000 0.000000 0.000000 1.147464 0.584916 55.646002 7.396167 -0.552212 -30.720621 4.548182 -2.924835 16.708682 -11.869381 5.538685 -44.441331 0.000000 0.000000 0.000000 -22.384270 -20.233417 12.992788 -9.262481 -42.341310 -0.885841 18.156494 -46.045249 -5.325083 0.000000 0.000000 0.000000 12.141082 33.946777 14.042164 23.125434 44.952815 3.953022 -8.355573 45.747033 -2.039212 0.000000 0.000000 0.000000 
0.349925 0.877068 0.663882 -4.823559 -13.258491 10.942274 27.023314 5.494476 -26.416971 -7.855175 2.922280 24.190643 4.329226 10.307615 11.581518 0.000000 0.000000 0.000000 -5.644140 3.276449 -33.197589 27.528381 -6.361914 27.552568 -10.466046 -25.871597 4.808933 0.000000 0.000000 0.000000 1.429550 0.395686 55.485739 7.004138 -0.455504 -31.026467 4.472511 -2.549050 17.042514 -11.815435 5.543111 -44.740335 0.000000 0.000000 0.000000 -21.311572 -20.692733 12.900978 -7.948290 -42.233538 -1.206555 19.282199 -44.917613 -5.691009 0.000000 0.000000 0.000000 12.316985 33.855590 14.128647 21.481596 45.486100 3.463310 -8.673313 45.420112 -2.110918 0.000000 0.000000 0.000000 
0.340740 0.879682 0.652101 -4.533870 -13.172989 10.671178 26.515443 5.212140 -25.912270 -6.405299 2.213985 22.374906 4.057367 10.045324 13.418491 0.000000 0.000000 0.000000 -4.796356 3.433317 -33.110820 26.825046 -6.041111 26.802062 -10.422428 -25.741568 5.277909 0.000000 0.000000 0.000000 1.663753 0.233462 55.394491 6.628230 -0.385897 -31.152524 4.749699 -2.491835 16.734265 -11.581913 5.466608 -44.881085 0.000000 0.000000 0.000000 -21.419863 -20.768794 12.941055 -7.530885 -41.673983 -1.300346 20.004822 -44.896219 -6.008052 0.000000 0.000000 0.000000 11.431548 33.749229 13.889221 20.501696 45.621302 3.143944 -8.752884 46.281547 -2.217166 0.000000 0.000000 0.000000 
0.335678 0.881321 0.642504 -4.369694 -13.221459 10.608149 25.989878 4.983316 -25.510588 -5.154387 1.661073 20.721642 3.961222 9.984143 14.598957 0.000000 0.000000 0.000000 -4.451919 3.527310 -33.209444 26.652083 -5.860217 26.043085 -10.349633 -25.569850 5.853599 0.000000 0.000000 0.000000 2.309016 -0.159964 54.408948 6.034944 -0.282701 -31.271479 4.559122 -2.424372 17.212265 -11.535724 5.449489 -45.208916 0.000000 0.000000 0.000000 -21.648337 -20.743229 12.992650 -7.634730 -41.318266 -1.302165 20.165231 -46.714248 -6.358091 0.000000 0.000000 0.000000 11.618941 33.386280 13.729605 18.557546 45.464567 2.424107 -8.692753 47.438775 -2.289769 0.000000 0.000000 0.000000 
0.334000 0.882477 0.635204 -4.058386 -12.951698 9.989156 24.728099 4.381839 -24.435389 -3.248178 0.918694 18.675057 3.863559 9.860728 14.978103 0.000000 0.000000 0.000000 -4.261121 3.446649 -32.539543 26.194426 -5.651438 25.309793 -10.377548 -25.560910 5.755216 0.000000 0.000000 0.000000 2.952825 -0.596738 53.902729 5.255609 -0.245326 -30.393137 4.599592 -2.529923 16.323746 -10.701933 5.172597 -45.195283 0.000000 0.000000 0.000000 -22.472511 -20.802926 13.226170 -8.026945 -40.609821 -1.185854 19.484354 -48.976263 -6.386876 0.000000 0.000000 0.000000 10.355310 33.043316 13.252511 17.718708 45.083052 2.131018 -8.931323 49.146584 -2.582831 0.000000 0.000000 0.000000 
0.335643 0.883172 0.629361 -4.069351 -12.807864 9.354418 24.062431 4.028594 -23.510457 -2.123385 0.519433 17.309646 3.797546 9.761369 15.021434 0.000000 0.000000 0.000000 -4.171276 3.375695 -32.009298 26.061723 -5.578875 24.942858 -10.387766 -25.504976 6.037295 0.000000 0.000000 0.000000 3.552383 -0.983876 52.997037 4.789101 -0.145718 -30.692539 4.543794 -2.666061 17.210393 -10.059872 4.968699 -45.497526 0.000000 0.000000 0.000000 -22.692737 -20.480089 13.125466 -10.083929 -40.490142 -0.726281 19.113763 -52.171429 -6.625619 0.000000 0.000000 0.000000 10.249215 32.564549 12.930685 16.819773 44.759566 1.743426 -8.480745 50.393992 -2.538295 0.000000 0.000000 0.000000 
0.340425 0.884288 0.623913 -4.085654 -12.255276 9.195719 23.243084 3.644864 -22.988484 -1.085121 0.159831 15.408790 3.687940 9.616630 14.937479 0.000000 0.000000 0.000000 -3.947011 3.315923 -31.541829 25.244075 -5.289236 23.931735 -10.529000 -25.744318 5.832329 0.000000 0.000000 0.000000 3.887879 -1.330880 51.629079 4.841150 -0.230930 -29.737177 4.455931 -2.609824 16.678062 -9.498329 4.796932 -45.816104 0.000000 0.000000 0.000000 -23.233619 -19.940605 12.890154 -11.706644 -40.227672 -0.336481 16.872276 -55.994529 -5.899491 0.000000 0.000000 0.000000 9.181701 32.395638 12.655074 16.411853 44.421026 1.594064 -8.479691 51.473604 -2.648152 0.000000 0.000000 0.000000 
